<?xml version="1.0" encoding="utf-8"?>
<!-- Generator: Adobe Illustrator 27.7.0, SVG Export Plug-In . SVG Version: 6.00 Build 0)  -->
<svg version="1.1" id="Layer_1" xmlns="http://www.w3.org/2000/svg" xmlns:xlink="http://www.w3.org/1999/xlink" x="0px" y="0px"
	 viewBox="0 0 48 48" style="enable-background:new 0 0 48 48;" xml:space="preserve">
<style type="text/css">
	.st0{fill:#FF8515;}
</style>
<path class="st0" d="M8.7,44.2c-1.9,0-3.6-0.7-4.9-2c-1.4-1.4-2-3-2-4.9c0-1.9,0.7-3.6,2-4.9c1.4-1.4,3-2.1,4.9-2.1h30.7
	c1.9,0,3.6,0.7,5,2c1.4,1.4,2,3,2,5c0,1.9-0.7,3.6-2,4.9c-1.4,1.3-3,2-5,2H8.7z M8.7,39.8h30.7c0.8,0,1.4-0.3,1.9-0.8
	c0.5-0.5,0.8-1.1,0.8-1.9c0-0.7-0.3-1.4-0.8-1.9c-0.5-0.5-1.1-0.8-1.9-0.8H8.7c-0.7,0-1.4,0.3-1.9,0.8c-0.5,0.5-0.7,1.1-0.7,1.9
	c0,0.8,0.2,1.4,0.7,1.9C7.3,39.6,8,39.8,8.7,39.8z M19.5,26.9c-0.7,0-1.2-0.2-1.7-0.7c-0.5-0.5-0.7-1-0.7-1.7V7
	c0-0.7,0.2-1.2,0.7-1.7c0.5-0.5,1-0.7,1.7-0.7H37c0.7,0,1.2,0.2,1.7,0.7c0.5,0.5,0.7,1,0.7,1.7v17.6c0,0.7-0.2,1.2-0.7,1.7
	c-0.5,0.5-1,0.7-1.7,0.7H19.5z M21.5,22.6H35V9H21.5V22.6z M1.6,22.4v-4.5h13.3v4.5H1.6z M24.4,16.4h7.7v-4h-7.7V16.4z M5.8,14.2
	h9.6V9.8H5.8V14.2z M21.5,22.6V9V22.6z"/>
</svg>
