<?xml version="1.0" encoding="utf-8"?>
<!-- Generator: Adobe Illustrator 27.7.0, SVG Export Plug-In . SVG Version: 6.00 Build 0)  -->
<svg version="1.1" id="Layer_1" xmlns="http://www.w3.org/2000/svg" xmlns:xlink="http://www.w3.org/1999/xlink" x="0px" y="0px"
	 viewBox="0 0 48 48" style="enable-background:new 0 0 48 48;" xml:space="preserve">
<style type="text/css">
	.st0{fill:#FF8515;}
</style>
<path class="st0" d="M27.9,43.2L13.7,28.1v-4.5h7.6c1.5,0,2.8-0.4,4-1.2c1.2-0.8,1.9-2.1,2.2-3.8H11.2v-4.7h16.3
	c-0.3-1.3-1.1-2.4-2.4-3.2c-1.3-0.8-2.6-1.2-4-1.2h-9.8V4.7h25.7v4.8h-7.3c0.6,0.4,1.2,1.1,1.7,2c0.5,0.9,0.9,1.8,1.1,2.5h4.5v4.7
	h-4.6c-0.4,3-1.5,5.3-3.5,7c-1.9,1.7-4.2,2.6-6.8,2.7h-1.8l14.1,15H27.9z"/>
</svg>
