<?xml version="1.0" encoding="utf-8"?>
<!-- Generator: Adobe Illustrator 27.7.0, SVG Export Plug-In . SVG Version: 6.00 Build 0)  -->
<svg version="1.1" id="Layer_1" xmlns="http://www.w3.org/2000/svg" xmlns:xlink="http://www.w3.org/1999/xlink" x="0px" y="0px"
	 viewBox="0 0 48 48" style="enable-background:new 0 0 48 48;" xml:space="preserve">
<style type="text/css">
	.st0{fill:#FF8515;}
</style>
<path class="st0" d="M21.9,39.4V25.2L9.4,18v14.2L21.9,39.4z M26.2,39.4l12.3-7.2V18l-12.3,7.2V39.4z M21.6,44.7L7.1,36.3
	c-0.8-0.4-1.3-1-1.8-1.8c-0.4-0.7-0.6-1.5-0.6-2.3V15.7c0-0.8,0.2-1.6,0.6-2.3c0.4-0.7,1-1.3,1.8-1.8l14.5-8.4
	c0.7-0.4,1.5-0.6,2.4-0.6c0.8,0,1.6,0.2,2.4,0.6l14.6,8.4c0.8,0.4,1.4,1,1.8,1.8c0.4,0.7,0.6,1.5,0.6,2.3v16.5
	c0,0.8-0.2,1.6-0.6,2.3c-0.4,0.7-1,1.3-1.8,1.8l-14.6,8.4c-0.7,0.4-1.5,0.6-2.4,0.6C23.2,45.3,22.4,45.1,21.6,44.7z M32.1,16.8
	l4.1-2.4L24,7.3l-4,2.4L32.1,16.8z M24,21.5l4.2-2.5l-12.3-7l-4.1,2.4L24,21.5z"/>
</svg>
